<?xml version="1.0" standalone="no"?>
<!DOCTYPE svg PUBLIC "-//W3C//DTD SVG 20010904//EN"
 "http://www.w3.org/TR/2001/REC-SVG-20010904/DTD/svg10.dtd">
<svg version="1.0" xmlns="http://www.w3.org/2000/svg"
 width="860.000000pt" height="820.000000pt" viewBox="0 0 860.000000 820.000000"
 preserveAspectRatio="xMidYMid meet">

<g transform="translate(0.000000,820.000000) scale(0.100000,-0.100000)"
fill="#000000" stroke="none">
<path d="M6285 6239 c-252 -37 -553 -178 -877 -411 -110 -79 -127 -96 -71 -73
243 103 451 185 558 221 434 144 690 122 900 -77 60 -57 175 -203 175 -222 0
-3 -23 -11 -52 -17 -203 -49 -415 -212 -554 -425 -219 -337 -330 -783 -364
-1470 -14 -282 -39 -395 -126 -565 -94 -182 -257 -352 -481 -501 -150 -99
-441 -246 -731 -370 l-173 -74 53 -5 c45 -4 70 1 168 38 641 243 999 472 1197
767 127 188 191 395 208 670 40 661 155 1109 364 1422 160 239 375 375 596
376 50 0 107 -4 128 -10 20 -7 37 -7 37 -2 0 5 -21 56 -46 114 -205 468 -508
672 -909 614z"/>
<path d="M6267 5915 c-147 -52 -170 -249 -39 -340 85 -59 214 -31 267 58 59
102 13 235 -97 282 -45 18 -81 19 -131 0z m23 -225 c0 -5 -2 -10 -4 -10 -3 0
-8 5 -11 10 -3 6 -1 10 4 10 6 0 11 -4 11 -10z"/>
<path d="M4647 3728 c-312 -427 -455 -559 -729 -674 -111 -47 -216 -75 -477
-129 -122 -24 -248 -52 -279 -61 -84 -24 -193 -78 -227 -113 l-29 -31 34 7
c53 12 168 8 338 -10 169 -19 343 -22 442 -7 35 5 66 8 67 6 2 -2 -77 -38
-174 -81 -422 -185 -625 -289 -811 -414 -501 -336 -772 -784 -811 -1335 -11
-158 7 -456 28 -456 3 0 19 37 35 83 50 144 127 328 188 451 119 238 226 385
401 552 191 182 339 275 837 530 206 105 422 219 480 253 522 311 770 675 770
1130 0 119 -33 331 -51 331 -4 0 -19 -15 -32 -32z"/>
<path d="M4250 2154 c-494 -219 -791 -411 -975 -630 -41 -50 -35 -45 41 28
104 102 212 187 339 265 111 69 381 203 547 271 95 39 135 61 165 92 23 22 38
40 34 39 -3 0 -71 -29 -151 -65z"/>
</g>
</svg>
